<mxfile host="app.diagrams.net" modified="2023-12-01T02:31:19.140Z" agent="Mozilla/5.0 (Macintosh; Intel Mac OS X 10_15_7) AppleWebKit/537.36 (KHTML, like Gecko) Chrome/119.0.0.0 Safari/537.36" etag="kDmDwSLdvPaevAA-K8Dl" version="22.1.5" type="github">
  <diagram name="Page-1" id="CsIa_x3OmDa4BE4Wmy2-">
    <mxGraphModel dx="1026" dy="617" grid="1" gridSize="10" guides="1" tooltips="1" connect="1" arrows="1" fold="1" page="1" pageScale="1" pageWidth="850" pageHeight="1100" math="0" shadow="0">
      <root>
        <mxCell id="0" />
        <mxCell id="1" parent="0" />
        <mxCell id="N6mvyxjznTWFGohQ_9sq-1" value="" style="swimlane;startSize=0;" vertex="1" parent="1">
          <mxGeometry width="600" height="720" as="geometry" />
        </mxCell>
        <mxCell id="N6mvyxjznTWFGohQ_9sq-2" value="" style="rounded=1;whiteSpace=wrap;html=1;fillColor=#d5e8d4;strokeColor=#82b366;" vertex="1" parent="N6mvyxjznTWFGohQ_9sq-1">
          <mxGeometry x="40" y="40" width="200" height="640" as="geometry" />
        </mxCell>
        <mxCell id="N6mvyxjznTWFGohQ_9sq-3" value="ActivGesture application" style="text;html=1;strokeColor=none;fillColor=none;align=center;verticalAlign=middle;whiteSpace=wrap;rounded=0;" vertex="1" parent="N6mvyxjznTWFGohQ_9sq-1">
          <mxGeometry x="65" y="60" width="150" height="30" as="geometry" />
        </mxCell>
        <mxCell id="N6mvyxjznTWFGohQ_9sq-7" value="" style="edgeStyle=orthogonalEdgeStyle;rounded=0;orthogonalLoop=1;jettySize=auto;html=1;" edge="1" parent="N6mvyxjznTWFGohQ_9sq-1" source="N6mvyxjznTWFGohQ_9sq-4" target="N6mvyxjznTWFGohQ_9sq-5">
          <mxGeometry relative="1" as="geometry" />
        </mxCell>
        <mxCell id="N6mvyxjznTWFGohQ_9sq-4" value="Gesture Handler" style="rounded=1;whiteSpace=wrap;html=1;" vertex="1" parent="N6mvyxjznTWFGohQ_9sq-1">
          <mxGeometry x="80" y="100" width="120" height="60" as="geometry" />
        </mxCell>
        <mxCell id="N6mvyxjznTWFGohQ_9sq-8" value="" style="edgeStyle=orthogonalEdgeStyle;rounded=0;orthogonalLoop=1;jettySize=auto;html=1;" edge="1" parent="N6mvyxjznTWFGohQ_9sq-1" source="N6mvyxjznTWFGohQ_9sq-5" target="N6mvyxjznTWFGohQ_9sq-6">
          <mxGeometry relative="1" as="geometry" />
        </mxCell>
        <mxCell id="N6mvyxjznTWFGohQ_9sq-9" value="post gesture result&amp;nbsp;" style="edgeLabel;html=1;align=center;verticalAlign=middle;resizable=0;points=[];" vertex="1" connectable="0" parent="N6mvyxjznTWFGohQ_9sq-8">
          <mxGeometry x="0.0667" relative="1" as="geometry">
            <mxPoint as="offset" />
          </mxGeometry>
        </mxCell>
        <mxCell id="N6mvyxjznTWFGohQ_9sq-5" value="Input Event Receiver" style="rounded=1;whiteSpace=wrap;html=1;" vertex="1" parent="N6mvyxjznTWFGohQ_9sq-1">
          <mxGeometry x="80" y="200" width="120" height="60" as="geometry" />
        </mxCell>
        <mxCell id="N6mvyxjznTWFGohQ_9sq-11" value="" style="edgeStyle=orthogonalEdgeStyle;rounded=0;orthogonalLoop=1;jettySize=auto;html=1;" edge="1" parent="N6mvyxjznTWFGohQ_9sq-1" source="N6mvyxjznTWFGohQ_9sq-6" target="N6mvyxjznTWFGohQ_9sq-10">
          <mxGeometry relative="1" as="geometry" />
        </mxCell>
        <mxCell id="N6mvyxjznTWFGohQ_9sq-12" value="trigger action" style="edgeLabel;html=1;align=center;verticalAlign=middle;resizable=0;points=[];" vertex="1" connectable="0" parent="N6mvyxjznTWFGohQ_9sq-11">
          <mxGeometry x="0.12" y="1" relative="1" as="geometry">
            <mxPoint as="offset" />
          </mxGeometry>
        </mxCell>
        <mxCell id="N6mvyxjznTWFGohQ_9sq-6" value="Gesture Manager" style="rounded=1;whiteSpace=wrap;html=1;" vertex="1" parent="N6mvyxjznTWFGohQ_9sq-1">
          <mxGeometry x="80" y="320" width="120" height="60" as="geometry" />
        </mxCell>
        <mxCell id="N6mvyxjznTWFGohQ_9sq-10" value="&lt;ul&gt;&lt;li&gt;&lt;span style=&quot;background-color: initial;&quot;&gt;switch sources&lt;/span&gt;&lt;/li&gt;&lt;li&gt;&lt;span style=&quot;background-color: initial;&quot;&gt;show running apps&lt;/span&gt;&lt;/li&gt;&lt;li&gt;&lt;span style=&quot;background-color: initial;&quot;&gt;show all apps&lt;/span&gt;&lt;/li&gt;&lt;li&gt;&lt;span style=&quot;background-color: initial;&quot;&gt;capture screen&lt;/span&gt;&lt;/li&gt;&lt;/ul&gt;" style="rounded=1;whiteSpace=wrap;html=1;align=left;" vertex="1" parent="N6mvyxjznTWFGohQ_9sq-1">
          <mxGeometry x="60" y="440" width="160" height="60" as="geometry" />
        </mxCell>
        <mxCell id="N6mvyxjznTWFGohQ_9sq-13" value="" style="rounded=1;whiteSpace=wrap;html=1;fillColor=#dae8fc;strokeColor=#6c8ebf;" vertex="1" parent="N6mvyxjznTWFGohQ_9sq-1">
          <mxGeometry x="360" y="40" width="200" height="380" as="geometry" />
        </mxCell>
        <mxCell id="N6mvyxjznTWFGohQ_9sq-14" value="Input Manager Service" style="text;html=1;strokeColor=none;fillColor=none;align=center;verticalAlign=middle;whiteSpace=wrap;rounded=0;" vertex="1" parent="N6mvyxjznTWFGohQ_9sq-1">
          <mxGeometry x="390" y="60" width="140" height="30" as="geometry" />
        </mxCell>
        <mxCell id="N6mvyxjznTWFGohQ_9sq-16" value="Input Dispatcher" style="rounded=1;whiteSpace=wrap;html=1;" vertex="1" parent="N6mvyxjznTWFGohQ_9sq-1">
          <mxGeometry x="400" y="320" width="120" height="60" as="geometry" />
        </mxCell>
        <mxCell id="N6mvyxjznTWFGohQ_9sq-20" value="" style="edgeStyle=orthogonalEdgeStyle;rounded=0;orthogonalLoop=1;jettySize=auto;html=1;" edge="1" parent="N6mvyxjznTWFGohQ_9sq-1" source="N6mvyxjznTWFGohQ_9sq-15" target="N6mvyxjznTWFGohQ_9sq-16">
          <mxGeometry relative="1" as="geometry" />
        </mxCell>
        <mxCell id="N6mvyxjznTWFGohQ_9sq-15" value="Input Monitor" style="rounded=1;whiteSpace=wrap;html=1;" vertex="1" parent="N6mvyxjznTWFGohQ_9sq-1">
          <mxGeometry x="400" y="200" width="120" height="60" as="geometry" />
        </mxCell>
        <mxCell id="N6mvyxjznTWFGohQ_9sq-17" value="foreground app" style="rounded=1;whiteSpace=wrap;html=1;fillColor=#fff2cc;strokeColor=#d6b656;" vertex="1" parent="N6mvyxjznTWFGohQ_9sq-1">
          <mxGeometry x="360" y="480" width="200" height="200" as="geometry" />
        </mxCell>
        <mxCell id="N6mvyxjznTWFGohQ_9sq-18" value="" style="endArrow=classic;html=1;rounded=0;exitX=0.5;exitY=1;exitDx=0;exitDy=0;entryX=0.5;entryY=0;entryDx=0;entryDy=0;" edge="1" parent="N6mvyxjznTWFGohQ_9sq-1" source="N6mvyxjznTWFGohQ_9sq-16" target="N6mvyxjznTWFGohQ_9sq-17">
          <mxGeometry width="50" height="50" relative="1" as="geometry">
            <mxPoint x="440" y="470" as="sourcePoint" />
            <mxPoint x="490" y="420" as="targetPoint" />
          </mxGeometry>
        </mxCell>
        <mxCell id="N6mvyxjznTWFGohQ_9sq-19" value="dispatch touch event" style="edgeLabel;html=1;align=center;verticalAlign=middle;resizable=0;points=[];" vertex="1" connectable="0" parent="N6mvyxjznTWFGohQ_9sq-18">
          <mxGeometry x="0.0071" y="1" relative="1" as="geometry">
            <mxPoint y="1" as="offset" />
          </mxGeometry>
        </mxCell>
        <mxCell id="N6mvyxjznTWFGohQ_9sq-21" value="" style="endArrow=classic;html=1;rounded=0;entryX=1;entryY=0.5;entryDx=0;entryDy=0;" edge="1" parent="N6mvyxjznTWFGohQ_9sq-1" target="N6mvyxjznTWFGohQ_9sq-4">
          <mxGeometry width="50" height="50" relative="1" as="geometry">
            <mxPoint x="360" y="130" as="sourcePoint" />
            <mxPoint x="490" y="290" as="targetPoint" />
          </mxGeometry>
        </mxCell>
        <mxCell id="N6mvyxjznTWFGohQ_9sq-22" value="monitorGestureInput" style="edgeLabel;html=1;align=center;verticalAlign=middle;resizable=0;points=[];" vertex="1" connectable="0" parent="N6mvyxjznTWFGohQ_9sq-21">
          <mxGeometry x="-0.0125" y="1" relative="1" as="geometry">
            <mxPoint as="offset" />
          </mxGeometry>
        </mxCell>
        <mxCell id="N6mvyxjznTWFGohQ_9sq-23" value="" style="endArrow=classic;html=1;rounded=0;exitX=0;exitY=0.25;exitDx=0;exitDy=0;entryX=1;entryY=0.25;entryDx=0;entryDy=0;" edge="1" parent="N6mvyxjznTWFGohQ_9sq-1" source="N6mvyxjznTWFGohQ_9sq-15" target="N6mvyxjznTWFGohQ_9sq-5">
          <mxGeometry width="50" height="50" relative="1" as="geometry">
            <mxPoint x="440" y="340" as="sourcePoint" />
            <mxPoint x="490" y="290" as="targetPoint" />
          </mxGeometry>
        </mxCell>
        <mxCell id="N6mvyxjznTWFGohQ_9sq-24" value="monitor touch event" style="edgeLabel;html=1;align=center;verticalAlign=middle;resizable=0;points=[];" vertex="1" connectable="0" parent="N6mvyxjznTWFGohQ_9sq-23">
          <mxGeometry x="0.08" relative="1" as="geometry">
            <mxPoint as="offset" />
          </mxGeometry>
        </mxCell>
        <mxCell id="N6mvyxjznTWFGohQ_9sq-25" value="" style="endArrow=classic;html=1;rounded=0;exitX=1;exitY=0.75;exitDx=0;exitDy=0;entryX=0;entryY=0.75;entryDx=0;entryDy=0;" edge="1" parent="N6mvyxjznTWFGohQ_9sq-1" source="N6mvyxjznTWFGohQ_9sq-5" target="N6mvyxjznTWFGohQ_9sq-15">
          <mxGeometry width="50" height="50" relative="1" as="geometry">
            <mxPoint x="440" y="340" as="sourcePoint" />
            <mxPoint x="490" y="290" as="targetPoint" />
          </mxGeometry>
        </mxCell>
        <mxCell id="N6mvyxjznTWFGohQ_9sq-26" value="pilferPointers" style="edgeLabel;html=1;align=center;verticalAlign=middle;resizable=0;points=[];" vertex="1" connectable="0" parent="N6mvyxjznTWFGohQ_9sq-25">
          <mxGeometry x="0.01" y="1" relative="1" as="geometry">
            <mxPoint y="1" as="offset" />
          </mxGeometry>
        </mxCell>
      </root>
    </mxGraphModel>
  </diagram>
</mxfile>
